#define RlQ4LUxpZ2h0X2xvZ28=_width 160
#define RlQ4LUxpZ2h0X2xvZ28=_height 160
static char RlQ4LUxpZ2h0X2xvZ28=_bits[] = {
  0x00, 0x00, 0x00, 0x00, 0x00, 0x00, 0x00, 0x00, 0x00, 0x00, 0x00, 0x00, 
  0x00, 0x00, 0x00, 0x00, 0x00, 0x00, 0x00, 0x00, 0x00, 0x00, 0x00, 0x00, 
  0x00, 0x00, 0x00, 0x00, 0x00, 0x00, 0x00, 0x00, 0x00, 0x00, 0x00, 0x00, 
  0x00, 0x00, 0x00, 0x00, 0x00, 0x00, 0x00, 0x00, 0x00, 0x00, 0x00, 0x00, 
  0x00, 0x00, 0x00, 0x00, 0x00, 0x00, 0x00, 0x00, 0x00, 0x00, 0x00, 0x00, 
  0x00, 0x00, 0x00, 0x00, 0x00, 0x00, 0x00, 0x00, 0x00, 0x00, 0x00, 0x00, 
  0x00, 0x00, 0x00, 0x00, 0x00, 0x00, 0x00, 0x00, 0x00, 0x00, 0x00, 0x00, 
  0x00, 0x00, 0x00, 0x00, 0x00, 0x00, 0x00, 0x00, 0x00, 0x00, 0x00, 0x00, 
  0x00, 0x00, 0x00, 0x00, 0x00, 0x00, 0x00, 0x00, 0x00, 0x00, 0x00, 0x00, 
  0x00, 0x00, 0x00, 0x00, 0x00, 0x00, 0x00, 0x00, 0x00, 0x00, 0x00, 0x00, 
  0x00, 0x00, 0x00, 0x00, 0x00, 0x00, 0x00, 0x00, 0x00, 0x00, 0x00, 0x00, 
  0x00, 0x00, 0x00, 0x00, 0x00, 0x00, 0x00, 0x00, 0x00, 0x00, 0x00, 0x00, 
  0x00, 0x00, 0x00, 0x00, 0xFE, 0xBF, 0xFF, 0x7F, 0x00, 0x00, 0x00, 0x00, 
  0x00, 0x00, 0x00, 0x00, 0x00, 0x00, 0x00, 0x00, 0x00, 0x00, 0x00, 0x00, 
  0xFE, 0x7F, 0xFF, 0x7F, 0x00, 0x00, 0x00, 0x00, 0x00, 0x00, 0x00, 0x00, 
  0x00, 0x00, 0x00, 0x00, 0x00, 0x00, 0x00, 0x00, 0xFE, 0xFF, 0xFF, 0x7F, 
  0x00, 0x00, 0x00, 0x00, 0x00, 0x00, 0x00, 0x00, 0x00, 0x00, 0x00, 0x00, 
  0x00, 0x00, 0x00, 0x00, 0x1E, 0x02, 0xE1, 0x23, 0x00, 0x00, 0x00, 0x00, 
  0x00, 0x00, 0x00, 0x00, 0x00, 0x00, 0x00, 0x00, 0x00, 0x00, 0x00, 0x00, 
  0x1E, 0x00, 0xE0, 0x01, 0x00, 0x00, 0x00, 0x00, 0x00, 0x00, 0x00, 0x00, 
  0x00, 0x00, 0x00, 0x00, 0x00, 0x00, 0x00, 0x00, 0x1E, 0x00, 0xE0, 0x01, 
  0x00, 0x00, 0x00, 0x00, 0x00, 0x00, 0x00, 0x00, 0x00, 0x00, 0x00, 0x00, 
  0x00, 0x00, 0x00, 0x00, 0x1E, 0x00, 0xE0, 0x01, 0x00, 0x00, 0x00, 0x00, 
  0x00, 0x00, 0x00, 0x00, 0x00, 0x00, 0x00, 0x00, 0x00, 0x00, 0x00, 0x00, 
  0x1E, 0x00, 0xE0, 0x01, 0x00, 0x00, 0x00, 0x00, 0x00, 0x00, 0x00, 0x00, 
  0x00, 0x00, 0x00, 0x00, 0x00, 0x00, 0x00, 0x00, 0xFE, 0x3F, 0xE0, 0x01, 
  0x00, 0x00, 0x00, 0x00, 0x00, 0x00, 0x00, 0x00, 0x00, 0x00, 0x00, 0x00, 
  0x00, 0x00, 0x00, 0x00, 0xFE, 0x1F, 0xE0, 0x01, 0x00, 0x00, 0x00, 0x00, 
  0x00, 0x00, 0x00, 0x00, 0x00, 0x00, 0x00, 0x00, 0x00, 0x00, 0x00, 0x00, 
  0xFE, 0x3F, 0xE0, 0x01, 0x00, 0x00, 0x00, 0x00, 0x00, 0x00, 0x00, 0x00, 
  0x00, 0x00, 0x00, 0x00, 0x00, 0x00, 0x00, 0x00, 0x9E, 0x01, 0xC0, 0x01, 
  0x00, 0x00, 0x00, 0x00, 0x00, 0x00, 0x00, 0x00, 0x00, 0x00, 0x00, 0x00, 
  0x00, 0x00, 0x00, 0x00, 0x1E, 0x00, 0xE0, 0x01, 0x00, 0x00, 0x00, 0x00, 
  0x00, 0x00, 0x00, 0x00, 0x00, 0x00, 0x00, 0x00, 0x00, 0x00, 0x00, 0x00, 
  0x1E, 0x00, 0xE0, 0x01, 0x00, 0x00, 0x00, 0x00, 0x00, 0x00, 0x00, 0x00, 
  0x00, 0x00, 0x00, 0x00, 0x00, 0x00, 0x00, 0x00, 0x1E, 0x00, 0xE0, 0x01, 
  0x00, 0x00, 0x00, 0x00, 0x00, 0x00, 0x00, 0x00, 0x00, 0x00, 0x00, 0x00, 
  0x00, 0x00, 0x00, 0x00, 0x1E, 0x00, 0xE0, 0x01, 0x00, 0x00, 0x00, 0x00, 
  0x00, 0x00, 0x00, 0x00, 0x00, 0x00, 0x00, 0x00, 0x00, 0x00, 0x00, 0x00, 
  0x1E, 0x00, 0xE0, 0x01, 0x00, 0x00, 0x00, 0x00, 0x00, 0x00, 0x00, 0x00, 
  0x00, 0x00, 0x00, 0x00, 0x00, 0x00, 0x00, 0x00, 0x1E, 0x00, 0xE0, 0x01, 
  0x00, 0x00, 0x00, 0x00, 0x00, 0x00, 0x00, 0x00, 0x00, 0x00, 0xC0, 0x01, 
  0x00, 0x00, 0x00, 0x00, 0x1E, 0x00, 0xE0, 0x01, 0x00, 0x00, 0x00, 0x00, 
  0x80, 0x00, 0x00, 0x00, 0x00, 0x00, 0xC0, 0x03, 0x00, 0x00, 0x00, 0x00, 
  0x1E, 0x00, 0xE0, 0x01, 0x00, 0x00, 0x00, 0x00, 0xC0, 0x01, 0x00, 0x00, 
  0x00, 0x00, 0xE0, 0x07, 0x00, 0x00, 0x00, 0x00, 0x00, 0x00, 0x00, 0x00, 
  0x00, 0x00, 0x00, 0x00, 0xE0, 0x01, 0x00, 0x00, 0x00, 0x00, 0xF0, 0x0F, 
  0x00, 0x00, 0x00, 0x00, 0x00, 0x00, 0x00, 0x00, 0x00, 0x00, 0x00, 0x00, 
  0xF0, 0x03, 0x00, 0x00, 0x00, 0x00, 0xF8, 0x1F, 0x00, 0x00, 0x00, 0x00, 
  0x00, 0x00, 0x00, 0x00, 0x00, 0x00, 0x00, 0x00, 0xFC, 0x07, 0x00, 0x00, 
  0x00, 0x00, 0xF8, 0x07, 0x00, 0x00, 0x00, 0x00, 0x00, 0x00, 0x00, 0x00, 
  0x00, 0x00, 0x00, 0x00, 0xF8, 0x0F, 0x00, 0x00, 0x00, 0x00, 0xFC, 0x07, 
  0x00, 0x00, 0x00, 0x00, 0x00, 0x00, 0x00, 0x00, 0x00, 0x00, 0x00, 0x00, 
  0xF0, 0x0F, 0x00, 0x00, 0x00, 0x00, 0xFE, 0x03, 0x00, 0x00, 0x00, 0x00, 
  0x00, 0x00, 0x00, 0x00, 0x00, 0x00, 0x00, 0x00, 0xF0, 0x1F, 0x00, 0x00, 
  0x00, 0x00, 0xFE, 0x01, 0x00, 0x00, 0x00, 0x00, 0x00, 0x00, 0x00, 0x00, 
  0x00, 0x00, 0x00, 0x00, 0xE0, 0x3F, 0x00, 0x00, 0x00, 0x00, 0xFF, 0x00, 
  0x00, 0x02, 0x00, 0x00, 0x00, 0x00, 0x00, 0x00, 0x00, 0x00, 0x00, 0x00, 
  0xC0, 0x3F, 0x00, 0x00, 0x00, 0x80, 0xFF, 0x00, 0x00, 0x07, 0x00, 0x00, 
  0x00, 0x00, 0x00, 0x00, 0x00, 0x00, 0x20, 0x00, 0x80, 0x7F, 0x00, 0x00, 
  0x00, 0x80, 0x7F, 0x00, 0x80, 0x0F, 0x00, 0x00, 0x00, 0x00, 0x00, 0x00, 
  0x00, 0x00, 0xF0, 0x00, 0x80, 0xFF, 0x00, 0x00, 0x00, 0xC0, 0x3F, 0x00, 
  0xC0, 0x0F, 0x00, 0x00, 0x00, 0x00, 0x00, 0x00, 0x00, 0x00, 0xF8, 0x01, 
  0x00, 0xFF, 0x00, 0x00, 0x00, 0xC0, 0x3F, 0x00, 0xF0, 0x1F, 0x00, 0x00, 
  0x00, 0x00, 0x00, 0x00, 0x00, 0x00, 0xFC, 0x01, 0x00, 0xFE, 0x01, 0x00, 
  0x00, 0xE0, 0x1F, 0x00, 0xF0, 0x3F, 0x00, 0x00, 0x00, 0xD4, 0x05, 0x00, 
  0x00, 0x00, 0xFC, 0x07, 0x00, 0xFE, 0x01, 0x00, 0x00, 0xE0, 0x1F, 0x00, 
  0xF8, 0x1F, 0x00, 0x00, 0xF0, 0xFF, 0xFF, 0x01, 0x00, 0x00, 0xFE, 0x07, 
  0x00, 0xFC, 0x03, 0x00, 0x00, 0xF0, 0x0F, 0x00, 0xFC, 0x0F, 0x00, 0x00, 
  0xFE, 0xFF, 0xFF, 0x0F, 0x00, 0x00, 0xF8, 0x1F, 0x00, 0xFC, 0x03, 0x00, 
  0x00, 0xF0, 0x0F, 0x00, 0xFE, 0x07, 0x00, 0x80, 0xFF, 0xFF, 0xFF, 0x3F, 
  0x00, 0x00, 0xF8, 0x1F, 0x00, 0xF8, 0x07, 0x00, 0x00, 0xF8, 0x07, 0x00, 
  0xFF, 0x03, 0x00, 0xF0, 0xFF, 0xFF, 0xFF, 0xFF, 0x01, 0x00, 0xF0, 0x3F, 
  0x00, 0xF0, 0x0F, 0x00, 0x00, 0xF8, 0x03, 0x00, 0xFF, 0x01, 0x00, 0xFC, 
  0xFF, 0xFF, 0xFF, 0xFF, 0x03, 0x00, 0xE0, 0x7F, 0x00, 0xF0, 0x0F, 0x00, 
  0x00, 0xFC, 0x03, 0x80, 0xFF, 0x00, 0x00, 0xFE, 0xFF, 0xFF, 0xFF, 0xFF, 
  0x0F, 0x00, 0x80, 0x7F, 0x00, 0xE0, 0x0F, 0x00, 0x00, 0xFC, 0x03, 0xC0, 
  0x7F, 0x00, 0x00, 0xFF, 0xFF, 0xFF, 0xFF, 0xFF, 0x3F, 0x00, 0x80, 0xFF, 
  0x00, 0xE0, 0x1F, 0x00, 0x00, 0xFE, 0x01, 0xC0, 0x3F, 0x00, 0xC0, 0xFF, 
  0xFF, 0xFF, 0xFF, 0xFF, 0x7F, 0x00, 0x00, 0xFF, 0x01, 0xC0, 0x1F, 0x00, 
  0x00, 0xFE, 0x01, 0xE0, 0x3F, 0x00, 0xE0, 0xFF, 0xFF, 0xFF, 0xFF, 0xFF, 
  0xFF, 0x01, 0x00, 0xFE, 0x01, 0xC0, 0x1F, 0x00, 0x00, 0xFE, 0x00, 0xE0, 
  0x1F, 0x00, 0xF0, 0xFF, 0xFF, 0xFF, 0xFF, 0xFF, 0xFF, 0x01, 0x00, 0xFE, 
  0x03, 0xC0, 0x3F, 0x00, 0x00, 0xFE, 0x00, 0xF0, 0x0F, 0x00, 0xFC, 0xFF, 
  0xFF, 0xFF, 0xFF, 0xFF, 0xFF, 0x07, 0x00, 0xFC, 0x03, 0x80, 0x3F, 0x00, 
  0x00, 0xFF, 0x00, 0xF8, 0x0F, 0x00, 0xFC, 0xFF, 0xFF, 0xFF, 0xFF, 0xFF, 
  0xFF, 0x07, 0x00, 0xF8, 0x07, 0x80, 0x7F, 0x00, 0x00, 0x7F, 0x00, 0xF8, 
  0x07, 0x00, 0xFE, 0xFF, 0xFF, 0xFF, 0xFF, 0xFF, 0xFF, 0x1F, 0x00, 0xF8, 
  0x0F, 0x80, 0x7F, 0x00, 0x80, 0x7F, 0x00, 0xF8, 0x07, 0x00, 0xFF, 0xFF, 
  0xFF, 0xFF, 0xFF, 0xFF, 0xFF, 0x1F, 0x00, 0xF0, 0x0F, 0x00, 0x7F, 0x00, 
  0x80, 0x7F, 0x00, 0xFC, 0x03, 0x80, 0xFF, 0xFF, 0xFF, 0x17, 0xFA, 0xFF, 
  0xFF, 0x3F, 0x00, 0xE0, 0x1F, 0x00, 0x7F, 0x00, 0x80, 0x3F, 0x00, 0xFC, 
  0x01, 0xC0, 0xFF, 0xFF, 0x7F, 0x00, 0xC0, 0xFF, 0xFF, 0x7F, 0x00, 0xE0, 
  0x1F, 0x00, 0xFE, 0x00, 0x80, 0x3F, 0x00, 0xFE, 0x01, 0xC0, 0xFF, 0xFF, 
  0x1F, 0x00, 0x00, 0xFE, 0xFF, 0x7F, 0x00, 0xC0, 0x1F, 0x00, 0xFE, 0x00, 
  0xC0, 0x3F, 0x00, 0xFE, 0x01, 0xE0, 0xFF, 0xFF, 0x07, 0x00, 0x00, 0xFC, 
  0xFF, 0xFF, 0x00, 0xC0, 0x3F, 0x00, 0xFE, 0x00, 0xC0, 0x3F, 0x00, 0xFE, 
  0x00, 0xF0, 0xFF, 0xFF, 0x03, 0x00, 0x00, 0xF0, 0xFF, 0xFF, 0x01, 0xC0, 
  0x3F, 0x00, 0xFE, 0x00, 0xC0, 0x1F, 0x00, 0xFF, 0x00, 0xF0, 0xFF, 0xFF, 
  0x01, 0x00, 0x00, 0xE0, 0xFF, 0xFF, 0x01, 0x80, 0x3F, 0x00, 0xFE, 0x01, 
  0xC0, 0x1F, 0x00, 0xFF, 0x00, 0xF8, 0xFF, 0x7F, 0x00, 0x00, 0x00, 0xC0, 
  0xFF, 0xFF, 0x03, 0x80, 0x7F, 0x00, 0xFC, 0x01, 0xC0, 0x1F, 0x00, 0x7F, 
  0x00, 0xF8, 0xFF, 0x7F, 0x00, 0x00, 0x00, 0x80, 0xFF, 0xFF, 0x03, 0x00, 
  0x7F, 0x00, 0xFC, 0x01, 0xC0, 0x1F, 0x00, 0x7F, 0x00, 0xFC, 0xFF, 0x3F, 
  0x00, 0x3F, 0x00, 0x00, 0xFF, 0xFF, 0x07, 0x00, 0x7F, 0x00, 0xFC, 0x01, 
  0xE0, 0x0F, 0x80, 0x7F, 0x00, 0xFC, 0xFF, 0x1F, 0xC0, 0xFF, 0x01, 0x00, 
  0xFF, 0xFF, 0x07, 0x00, 0x7F, 0x00, 0xFC, 0x01, 0xE0, 0x0F, 0x80, 0x3F, 
  0x00, 0xFC, 0xFF, 0x0F, 0xE0, 0xFF, 0x03, 0x00, 0xFE, 0xFF, 0x07, 0x00, 
  0xFF, 0x00, 0xFC, 0x01, 0xE0, 0x0F, 0x80, 0x3F, 0x00, 0xFE, 0xFF, 0x0F, 
  0xF0, 0xFF, 0x07, 0x00, 0xFC, 0xFF, 0x0F, 0x00, 0xFE, 0x00, 0xF8, 0x03, 
  0xE0, 0x0F, 0x80, 0x3F, 0x00, 0xFE, 0xFF, 0x07, 0xF8, 0xE3, 0x07, 0x00, 
  0xFC, 0xFF, 0x0F, 0x00, 0xFE, 0x00, 0xF8, 0x03, 0xE0, 0x0F, 0x80, 0x3F, 
  0x00, 0xFE, 0xFF, 0x07, 0xF8, 0xC0, 0x0F, 0x00, 0xF8, 0xFF, 0x0F, 0x00, 
  0xFE, 0x00, 0xF8, 0x03, 0xE0, 0x0F, 0x80, 0x3F, 0x00, 0xFF, 0xFF, 0x07, 
  0xF8, 0x80, 0x07, 0x00, 0xF8, 0xFF, 0x1F, 0x00, 0xFE, 0x01, 0xF8, 0x03, 
  0xE0, 0x0F, 0xC0, 0x1F, 0x00, 0xFF, 0xFF, 0x03, 0x78, 0x80, 0x0F, 0x00, 
  0xF8, 0xFF, 0x1F, 0x00, 0xFC, 0x00, 0xF8, 0x03, 0xE0, 0x0F, 0xC0, 0x3F, 
  0x00, 0xFF, 0xFF, 0x03, 0xF8, 0x80, 0x07, 0x00, 0xF8, 0xFF, 0x1F, 0x00, 
  0xFE, 0x01, 0xF8, 0x03, 0xE0, 0x0F, 0xC0, 0x1F, 0x00, 0xFF, 0xFF, 0x03, 
  0xF8, 0xC0, 0x07, 0x00, 0xF0, 0xFF, 0x1F, 0x00, 0xFE, 0x01, 0xF8, 0x03, 
  0xE0, 0x0F, 0xC0, 0x1F, 0x00, 0xFF, 0xFF, 0x01, 0xF0, 0xF7, 0x03, 0x00, 
  0xF0, 0xFF, 0x1F, 0x00, 0xFE, 0x01, 0xF8, 0x03, 0xE0, 0x0F, 0xC0, 0x3F, 
  0x00, 0xFF, 0xFF, 0x03, 0xE0, 0xFF, 0x01, 0x00, 0xF0, 0xFF, 0x1F, 0x00, 
  0xFC, 0x01, 0xF8, 0x03, 0xE0, 0x07, 0xC0, 0x3F, 0x00, 0xFF, 0xFF, 0x01, 
  0xE0, 0xFF, 0x01, 0x00, 0xF0, 0xFF, 0x1F, 0x00, 0xFE, 0x01, 0xF8, 0x07, 
  0xE0, 0x0F, 0xC0, 0x1F, 0x00, 0xFF, 0xFF, 0x01, 0xF0, 0xFF, 0x07, 0x00, 
  0xF0, 0xFF, 0x1F, 0x00, 0xFC, 0x01, 0xF8, 0x03, 0xF0, 0x0F, 0xC0, 0x1F, 
  0x00, 0xFF, 0xFF, 0x01, 0xF8, 0xE1, 0x07, 0x00, 0xF0, 0xFF, 0x1F, 0x00, 
  0xFC, 0x01, 0xF8, 0x03, 0xE0, 0x0F, 0xC0, 0x3F, 0x00, 0xFF, 0xFF, 0x01, 
  0xFC, 0x80, 0x0F, 0x00, 0xF0, 0xFF, 0x1F, 0x00, 0xFC, 0x00, 0xF8, 0x03, 
  0xE0, 0x0F, 0x80, 0x3F, 0x00, 0xFF, 0xFF, 0x01, 0x7C, 0x80, 0x0F, 0x00, 
  0xF0, 0xFF, 0x1F, 0x00, 0xFE, 0x01, 0xF8, 0x03, 0xE0, 0x0F, 0xC0, 0x3F, 
  0x00, 0xFF, 0xFF, 0x03, 0x7C, 0x80, 0x1F, 0x00, 0xF0, 0xFF, 0x1F, 0x00, 
  0xFE, 0x00, 0xF8, 0x03, 0xE0, 0x0F, 0x80, 0x3F, 0x00, 0xFF, 0xFF, 0x03, 
  0x7C, 0x80, 0x0F, 0x00, 0xF0, 0xFF, 0x1F, 0x00, 0xFE, 0x00, 0xF8, 0x03, 
  0xE0, 0x0F, 0x80, 0x3F, 0x00, 0xFF, 0xFF, 0x03, 0xFC, 0x80, 0x1F, 0x00, 
  0xF8, 0xFF, 0x1F, 0x00, 0xFE, 0x01, 0xF8, 0x03, 0xE0, 0x0F, 0x80, 0x3F, 
  0x00, 0xFE, 0xFF, 0x03, 0xFC, 0xC0, 0x0F, 0x00, 0xF8, 0xFF, 0x1F, 0x00, 
  0xFE, 0x00, 0xF8, 0x03, 0xE0, 0x1F, 0x80, 0x7F, 0x00, 0xFE, 0xFF, 0x07, 
  0xF8, 0xFD, 0x0F, 0x00, 0xF8, 0xFF, 0x0F, 0x00, 0xFE, 0x00, 0xF8, 0x03, 
  0xC0, 0x1F, 0x00, 0x7F, 0x00, 0xFE, 0xFF, 0x07, 0xF8, 0xFF, 0x07, 0x00, 
  0xFC, 0xFF, 0x0F, 0x00, 0xFE, 0x00, 0xF8, 0x03, 0xE0, 0x0F, 0x80, 0x7F, 
  0x00, 0xFE, 0xFF, 0x0F, 0xF0, 0xFF, 0x03, 0x00, 0xFC, 0xFF, 0x0F, 0x00, 
  0xFF, 0x00, 0xFC, 0x01, 0xC0, 0x1F, 0x00, 0x7F, 0x00, 0xFC, 0xFF, 0x0F, 
  0xE0, 0xFF, 0x01, 0x00, 0xFE, 0xFF, 0x07, 0x00, 0x7F, 0x00, 0xFC, 0x01, 
  0xC0, 0x1F, 0x00, 0xFF, 0x00, 0xFC, 0xFF, 0x1F, 0x00, 0x7E, 0x00, 0x00, 
  0xFE, 0xFF, 0x07, 0x00, 0x7F, 0x00, 0xFC, 0x01, 0xC0, 0x1F, 0x00, 0xFF, 
  0x00, 0xFC, 0xFF, 0x1F, 0x00, 0x00, 0x00, 0x00, 0xFF, 0xFF, 0x03, 0x80, 
  0x7F, 0x00, 0xFC, 0x01, 0x80, 0x3F, 0x00, 0xFE, 0x00, 0xF8, 0xFF, 0x3F, 
  0x00, 0x00, 0x00, 0x80, 0xFF, 0xFF, 0x03, 0x80, 0x7F, 0x00, 0xFE, 0x01, 
  0x80, 0x3F, 0x00, 0xFE, 0x01, 0xF8, 0xFF, 0x7F, 0x00, 0x00, 0x00, 0xC0, 
  0xFF, 0xFF, 0x03, 0x80, 0x3F, 0x00, 0xFE, 0x01, 0x80, 0x3F, 0x00, 0xFE, 
  0x01, 0xF0, 0xFF, 0xFF, 0x00, 0x00, 0x00, 0xC0, 0xFF, 0xFF, 0x01, 0xC0, 
  0x3F, 0x00, 0xFE, 0x00, 0x80, 0x3F, 0x00, 0xFC, 0x03, 0xF0, 0xFF, 0xFF, 
  0x01, 0x00, 0x00, 0xF0, 0xFF, 0xFF, 0x00, 0xC0, 0x3F, 0x00, 0xFE, 0x00, 
  0x80, 0x7F, 0x00, 0xFC, 0x03, 0xE0, 0xFF, 0xFF, 0x03, 0x00, 0x00, 0xF8, 
  0xFF, 0xFF, 0x00, 0xE0, 0x1F, 0x00, 0xFF, 0x00, 0x00, 0x7F, 0x00, 0xF8, 
  0x07, 0xC0, 0xFF, 0xFF, 0x0F, 0x00, 0x00, 0xFE, 0xFF, 0x7F, 0x00, 0xE0, 
  0x1F, 0x00, 0x7F, 0x00, 0x00, 0xFF, 0x00, 0xF8, 0x07, 0xC0, 0xFF, 0xFF, 
  0x3F, 0x00, 0x80, 0xFF, 0xFF, 0x7F, 0x00, 0xF0, 0x0F, 0x00, 0x7F, 0x00, 
  0x00, 0xFF, 0x00, 0xF0, 0x0F, 0x80, 0xFF, 0xFF, 0xFF, 0x01, 0xE0, 0xFF, 
  0xFF, 0x3F, 0x00, 0xF0, 0x0F, 0x00, 0x7F, 0x00, 0x00, 0xFE, 0x00, 0xF0, 
  0x0F, 0x00, 0xFF, 0xFF, 0xFF, 0xFF, 0xFF, 0xFF, 0xFF, 0x1F, 0x00, 0xF8, 
  0x07, 0x80, 0x3F, 0x00, 0x00, 0xFE, 0x01, 0xE0, 0x1F, 0x00, 0xFE, 0xFF, 
  0xFF, 0xFF, 0xFF, 0xFF, 0xFF, 0x0F, 0x00, 0xFC, 0x07, 0x80, 0x3F, 0x00, 
  0x00, 0xFE, 0x01, 0xE0, 0x3F, 0x00, 0xFC, 0xFF, 0xFF, 0xFF, 0xFF, 0xFF, 
  0xFF, 0x07, 0x00, 0xFC, 0x03, 0xC0, 0x3F, 0x00, 0x00, 0xFC, 0x01, 0xC0, 
  0x7F, 0x00, 0xF8, 0xFF, 0xFF, 0xFF, 0xFF, 0xFF, 0xFF, 0x03, 0x00, 0xFE, 
  0x03, 0xC0, 0x3F, 0x00, 0x00, 0xFC, 0x03, 0xC0, 0x7F, 0x00, 0xF0, 0xFF, 
  0xFF, 0xFF, 0xFF, 0xFF, 0xFF, 0x01, 0x00, 0xFF, 0x01, 0xE0, 0x1F, 0x00, 
  0x00, 0xF8, 0x03, 0x80, 0xFF, 0x00, 0xE0, 0xFF, 0xFF, 0xFF, 0xFF, 0xFF, 
  0xFF, 0x00, 0x80, 0xFF, 0x00, 0xE0, 0x1F, 0x00, 0x00, 0xF8, 0x07, 0x00, 
  0xFF, 0x01, 0xC0, 0xFF, 0xFF, 0xFF, 0xFF, 0xFF, 0x7F, 0x00, 0x80, 0xFF, 
  0x00, 0xE0, 0x0F, 0x00, 0x00, 0xF0, 0x07, 0x00, 0xFE, 0x03, 0x00, 0xFF, 
  0xFF, 0xFF, 0xFF, 0xFF, 0x1F, 0x00, 0xC0, 0x7F, 0x00, 0xF0, 0x0F, 0x00, 
  0x00, 0xF0, 0x0F, 0x00, 0xFE, 0x07, 0x00, 0xFE, 0xFF, 0xFF, 0xFF, 0xFF, 
  0x0F, 0x00, 0xE0, 0x3F, 0x00, 0xF0, 0x07, 0x00, 0x00, 0xE0, 0x0F, 0x00, 
  0xFC, 0x0F, 0x00, 0xF8, 0xFF, 0xFF, 0xFF, 0xFF, 0x03, 0x00, 0xF0, 0x3F, 
  0x00, 0xF8, 0x07, 0x00, 0x00, 0xE0, 0x1F, 0x00, 0xF8, 0x1F, 0x00, 0xF8, 
  0xFF, 0xFF, 0xFF, 0xFF, 0x00, 0x00, 0xF8, 0x1F, 0x00, 0xFC, 0x03, 0x00, 
  0x00, 0xC0, 0x3F, 0x00, 0xF0, 0x3F, 0x00, 0xFC, 0xFF, 0xFF, 0xFF, 0xFF, 
  0x00, 0x00, 0xFC, 0x0F, 0x00, 0xFC, 0x03, 0x00, 0x00, 0xC0, 0x3F, 0x00, 
  0xE0, 0x7F, 0x00, 0xFC, 0xFD, 0xFF, 0xFF, 0xFF, 0x00, 0x00, 0xFE, 0x07, 
  0x00, 0xFE, 0x01, 0x00, 0x00, 0x80, 0x7F, 0x00, 0xC0, 0xFF, 0x00, 0xFC, 
  0xC1, 0xFF, 0x7F, 0xFC, 0x01, 0x80, 0xFF, 0x03, 0x00, 0xFE, 0x01, 0x00, 
  0x00, 0x80, 0xFF, 0x00, 0x80, 0x7F, 0x00, 0xFE, 0x00, 0x88, 0x00, 0xFC, 
  0x01, 0x00, 0xFF, 0x01, 0x00, 0xFF, 0x00, 0x00, 0x00, 0x00, 0xFF, 0x00, 
  0x00, 0x3F, 0x00, 0xFE, 0x00, 0x00, 0x00, 0xFC, 0x03, 0x00, 0xFF, 0x00, 
  0x80, 0xFF, 0x00, 0x00, 0x00, 0x00, 0xFE, 0x01, 0x00, 0x1E, 0x00, 0x7F, 
  0x00, 0x00, 0x00, 0xFF, 0x03, 0x00, 0x7E, 0x00, 0xC0, 0x7F, 0x00, 0x00, 
  0x00, 0x00, 0xFE, 0x03, 0x00, 0x1C, 0x00, 0x7F, 0x00, 0x00, 0xF8, 0xFF, 
  0x07, 0x00, 0x3C, 0x00, 0xC0, 0x3F, 0x00, 0x00, 0x00, 0x00, 0xFC, 0x07, 
  0x00, 0x00, 0x80, 0x7F, 0x00, 0x80, 0xFF, 0xF3, 0x07, 0x00, 0x18, 0x00, 
  0xE0, 0x3F, 0x00, 0x00, 0x00, 0x00, 0xF8, 0x07, 0x00, 0x00, 0x80, 0x3F, 
  0x00, 0xF8, 0x7F, 0xF0, 0x0F, 0x00, 0x00, 0x00, 0xF0, 0x1F, 0x00, 0x00, 
  0x00, 0x00, 0xF8, 0x0F, 0x00, 0x00, 0xC0, 0x3F, 0x80, 0xFF, 0x03, 0xE0, 
  0x0F, 0x00, 0x00, 0x00, 0xF8, 0x0F, 0x00, 0x00, 0x00, 0x00, 0xF0, 0x1F, 
  0x00, 0x00, 0xC0, 0x1F, 0xFC, 0x3F, 0x00, 0xE0, 0x0F, 0x00, 0x00, 0x00, 
  0xFC, 0x07, 0x00, 0x00, 0x00, 0x00, 0xE0, 0x3F, 0x00, 0x00, 0xE0, 0x9F, 
  0xFF, 0x03, 0x00, 0xC0, 0x1F, 0x00, 0x00, 0x00, 0xFC, 0x07, 0x00, 0x00, 
  0x00, 0x00, 0xC0, 0x7F, 0x00, 0x00, 0xE0, 0xFF, 0x3F, 0x00, 0x00, 0xC0, 
  0x1F, 0x00, 0x00, 0x00, 0xFE, 0x03, 0x00, 0x00, 0x00, 0x00, 0x80, 0x1F, 
  0x00, 0x00, 0xF0, 0xFF, 0x01, 0x00, 0x00, 0x80, 0x3F, 0x00, 0x00, 0x00, 
  0xFE, 0x01, 0x00, 0x00, 0x00, 0x00, 0x80, 0x1F, 0x00, 0x00, 0xF0, 0xFF, 
  0x01, 0x00, 0x00, 0x80, 0x3F, 0x00, 0x00, 0x00, 0xFE, 0x00, 0x00, 0x00, 
  0x00, 0x00, 0x00, 0x0F, 0x00, 0x00, 0xF8, 0xF7, 0x1F, 0x00, 0x00, 0x00, 
  0x7F, 0x00, 0x00, 0x00, 0x78, 0x00, 0x00, 0x00, 0x00, 0x00, 0x00, 0x06, 
  0x00, 0x00, 0xF8, 0x83, 0x7F, 0x00, 0x00, 0x00, 0x7F, 0x00, 0x00, 0x00, 
  0x30, 0x00, 0x00, 0x00, 0x00, 0x00, 0x00, 0x00, 0x00, 0x00, 0xF8, 0x03, 
  0xF8, 0x07, 0x00, 0x00, 0xFE, 0x00, 0x00, 0x00, 0x20, 0x00, 0x00, 0x00, 
  0x00, 0x00, 0x00, 0x00, 0x00, 0x00, 0xFC, 0x01, 0xE0, 0x1F, 0x00, 0x00, 
  0xFE, 0x00, 0x00, 0x00, 0x00, 0x00, 0x00, 0x00, 0x00, 0x00, 0x00, 0x00, 
  0x00, 0x00, 0xFE, 0x01, 0x00, 0xFF, 0x00, 0x00, 0xFC, 0x01, 0x00, 0x00, 
  0x00, 0x00, 0x00, 0x00, 0x00, 0x00, 0x00, 0x00, 0x00, 0x00, 0xFE, 0x01, 
  0x00, 0xF8, 0x07, 0x00, 0xFC, 0x01, 0x00, 0x00, 0x00, 0x00, 0x00, 0x00, 
  0x00, 0x00, 0x00, 0x00, 0x00, 0x00, 0xFE, 0x00, 0x00, 0xC0, 0x3F, 0x00, 
  0xF8, 0x03, 0x00, 0x00, 0x00, 0x00, 0x00, 0x00, 0x00, 0x00, 0x44, 0x41, 
  0x14, 0x44, 0xFF, 0x14, 0x44, 0x41, 0xFE, 0x45, 0xFC, 0x83, 0x44, 0x41, 
  0x48, 0x04, 0x00, 0x00, 0x00, 0x80, 0xFF, 0xFF, 0xFF, 0xFF, 0xFF, 0xFF, 
  0xFF, 0xFF, 0xFF, 0xFF, 0xFF, 0xFF, 0xFF, 0xFF, 0xFF, 0x7F, 0x00, 0x00, 
  0x00, 0xE0, 0xFF, 0xFF, 0xFF, 0xFF, 0xFF, 0xFF, 0xFF, 0xFF, 0xFF, 0xFF, 
  0xFF, 0xFF, 0xFF, 0xFF, 0xFF, 0xFF, 0x01, 0x00, 0x00, 0xF0, 0xFF, 0xFF, 
  0xFF, 0xFF, 0xFF, 0xFF, 0xFF, 0xFF, 0xFF, 0xFF, 0xFF, 0xFF, 0xFF, 0xFF, 
  0xFF, 0xFF, 0x03, 0x00, 0x00, 0xF8, 0xFF, 0xFF, 0xFF, 0xFF, 0xFF, 0xFF, 
  0xFF, 0xFF, 0xFF, 0xFF, 0xFF, 0xFF, 0xFF, 0xFF, 0xFF, 0xFF, 0x07, 0x00, 
  0x00, 0xFC, 0xFF, 0xFF, 0xFF, 0xFF, 0xFF, 0xFF, 0xFF, 0xFF, 0xFF, 0xFF, 
  0xFF, 0xFF, 0xFF, 0xFF, 0xFF, 0xFF, 0x07, 0x00, 0x00, 0xFC, 0xFF, 0xFF, 
  0xFF, 0xFF, 0xFF, 0xFF, 0xFF, 0xFF, 0xFF, 0xFF, 0xFF, 0xFF, 0xFF, 0xFF, 
  0xFF, 0xFF, 0x0F, 0x00, 0x00, 0xFC, 0xFF, 0xFF, 0xFF, 0xFF, 0xFF, 0xFF, 
  0xFF, 0xFF, 0xFF, 0xFF, 0xFF, 0xFF, 0xFF, 0xFF, 0xFF, 0xFF, 0x0F, 0x00, 
  0x00, 0xFE, 0xFF, 0xFF, 0xCF, 0xFF, 0xC7, 0xFF, 0xC1, 0xFF, 0xF1, 0xF3, 
  0x07, 0xC0, 0xFF, 0xFF, 0xFF, 0xFF, 0x0F, 0x00, 0x00, 0xFC, 0xFF, 0xFF, 
  0xC7, 0xFF, 0xC7, 0x7F, 0x80, 0xFF, 0xF1, 0xF1, 0x07, 0xC0, 0xFF, 0xFF, 
  0xFF, 0xFF, 0x0F, 0x00, 0x00, 0xFE, 0xFF, 0xFF, 0xC7, 0xFF, 0xC7, 0x3F, 
  0x00, 0xFF, 0xF1, 0xF1, 0x4F, 0xC0, 0xFF, 0xFF, 0xFF, 0xFF, 0x0F, 0x00, 
  0x00, 0x7C, 0xFF, 0xFF, 0x8F, 0xFF, 0xC7, 0x3F, 0x1C, 0xFE, 0xF1, 0xF3, 
  0x7F, 0xFC, 0xFF, 0xFF, 0xFF, 0xDF, 0x0F, 0x00, 0x00, 0x7C, 0xFC, 0xFF, 
  0xC7, 0xFF, 0xC7, 0x3F, 0x3F, 0xFE, 0xF1, 0xE3, 0xFF, 0xFC, 0xFF, 0xFF, 
  0xFF, 0xC7, 0x0F, 0x00, 0x00, 0xFE, 0xF0, 0xFF, 0xCF, 0xFF, 0xC7, 0x1F, 
  0xFF, 0xFF, 0xF1, 0xF1, 0x7F, 0xFC, 0xFF, 0xFF, 0xFF, 0xE3, 0x0F, 0x00, 
  0x00, 0xFC, 0x01, 0xFE, 0xCF, 0xFF, 0xC7, 0x1F, 0xFF, 0xFF, 0x01, 0xF0, 
  0x7F, 0xFC, 0xFF, 0xFF, 0x1F, 0xE0, 0x0F, 0x00, 0x00, 0xDC, 0x03, 0xFC, 
  0xC7, 0xFF, 0xC7, 0x1F, 0x8F, 0xFE, 0x01, 0xF0, 0xFF, 0xFC, 0xFF, 0xFF, 
  0x07, 0xF8, 0x0F, 0x00, 0x00, 0x9E, 0x1F, 0xF8, 0x8F, 0xFF, 0xC7, 0x9F, 
  0x0F, 0xFE, 0x11, 0xE0, 0x7F, 0xFC, 0xFF, 0xFF, 0x03, 0x3E, 0x0F, 0x00, 
  0x00, 0x3C, 0xFE, 0xF3, 0xC7, 0xFF, 0xC7, 0x1F, 0x0F, 0xFE, 0xF1, 0xF3, 
  0xFF, 0xFC, 0xFF, 0xFF, 0xF1, 0x8F, 0x0F, 0x00, 0x00, 0x3C, 0xE0, 0xF7, 
  0xCF, 0xFF, 0xC7, 0x1F, 0x7F, 0xFE, 0xF1, 0xF3, 0x7F, 0xFC, 0xFF, 0xFF, 
  0xFD, 0x81, 0x0F, 0x00, 0x00, 0xFC, 0x00, 0xEF, 0xC7, 0xFF, 0xC7, 0x1F, 
  0x3E, 0xFE, 0xF1, 0xE1, 0xFF, 0xFC, 0xFF, 0xFF, 0x1E, 0xC0, 0x0F, 0x00, 
  0x00, 0xFE, 0x01, 0xFE, 0xCF, 0xFF, 0xC7, 0x3F, 0x3E, 0xFE, 0xF1, 0xF3, 
  0x7F, 0xFC, 0xFF, 0xFF, 0x0F, 0xF0, 0x0F, 0x00, 0x00, 0xFC, 0x3F, 0xFC, 
  0x07, 0xE2, 0xC7, 0x7F, 0x00, 0xFE, 0xF3, 0xF1, 0x7F, 0xFC, 0xFF, 0xFF, 
  0x0F, 0xFE, 0x0F, 0x00, 0x00, 0xFC, 0xFF, 0xF9, 0x07, 0xE0, 0xC7, 0x7F, 
  0x80, 0xFE, 0xF1, 0xF1, 0xFF, 0xFC, 0xFF, 0xFF, 0xE7, 0xFF, 0x0F, 0x00, 
  0x00, 0xFC, 0xFF, 0xFB, 0x0F, 0xE0, 0xC7, 0xFF, 0xE1, 0xFE, 0xF1, 0xF3, 
  0x7F, 0xFC, 0xFF, 0xFF, 0xFB, 0xFF, 0x0F, 0x00, 0x00, 0xFC, 0xFF, 0xFF, 
  0xFF, 0xFF, 0xFF, 0xFF, 0xFF, 0xFF, 0xFF, 0xFF, 0xFF, 0xFF, 0xFF, 0xFF, 
  0xFF, 0xFF, 0x07, 0x00, 0x00, 0xF8, 0xFF, 0xFF, 0xFF, 0xFF, 0xFF, 0xFF, 
  0xFF, 0xFF, 0xFF, 0xFF, 0xFF, 0xFF, 0xFF, 0xFF, 0xFF, 0xFF, 0x07, 0x00, 
  0x00, 0xF0, 0xFF, 0xFF, 0xFF, 0xFF, 0xFF, 0xFF, 0xFF, 0xFF, 0xFF, 0xFF, 
  0xFF, 0xFF, 0xFF, 0xFF, 0xFF, 0xFF, 0x03, 0x00, 0x00, 0xF0, 0xFF, 0xFF, 
  0xFF, 0xFF, 0xFF, 0xFF, 0xFF, 0xFF, 0xFF, 0xFF, 0xFF, 0xFF, 0xFF, 0xFF, 
  0xFF, 0xFF, 0x01, 0x00, 0x00, 0xC0, 0xFF, 0xFF, 0xFF, 0xFF, 0xFF, 0xFF, 
  0xFF, 0xFF, 0xFF, 0xFF, 0xFF, 0xFF, 0xFF, 0xFF, 0xFF, 0xFF, 0x00, 0x00, 
  0x00, 0x00, 0xDD, 0xBB, 0xDB, 0xB6, 0x6D, 0xDB, 0xB6, 0x6D, 0xDB, 0x76, 
  0xBB, 0xBB, 0xBB, 0xBB, 0xDD, 0x1B, 0x00, 0x00, };
